<mxfile host="app.diagrams.net" agent="Mozilla/5.0 (Windows NT 10.0; Win64; x64) AppleWebKit/537.36 (KHTML, like Gecko) Chrome/129.0.0.0 Safari/537.36" version="24.7.17">
  <diagram name="Page-1" id="c37626ed-c26b-45fb-9056-f9ebc6bb27b6">
    <mxGraphModel dx="2024" dy="3320" grid="1" gridSize="10" guides="1" tooltips="1" connect="1" arrows="1" fold="1" page="1" pageScale="1" pageWidth="1100" pageHeight="850" background="none" math="0" shadow="0">
      <root>
        <mxCell id="0" />
        <mxCell id="1" parent="0" />
        <mxCell id="jmx8Vs3CeX0Q1d44jfAe-7" value="" style="edgeStyle=orthogonalEdgeStyle;rounded=0;orthogonalLoop=1;jettySize=auto;html=1;strokeWidth=2;" edge="1" parent="1" source="jmx8Vs3CeX0Q1d44jfAe-1" target="jmx8Vs3CeX0Q1d44jfAe-5">
          <mxGeometry relative="1" as="geometry" />
        </mxCell>
        <mxCell id="jmx8Vs3CeX0Q1d44jfAe-1" value="&lt;b&gt;&amp;nbsp; 运维区&lt;/b&gt;" style="rounded=1;whiteSpace=wrap;html=1;horizontal=1;verticalAlign=top;align=left;fontSize=25;dashed=1;strokeWidth=2;arcSize=3;" vertex="1" parent="1">
          <mxGeometry x="1461" y="-1680" width="389" height="160" as="geometry" />
        </mxCell>
        <mxCell id="jmx8Vs3CeX0Q1d44jfAe-2" value="" style="fontColor=#0066CC;verticalAlign=top;verticalLabelPosition=bottom;labelPosition=center;align=center;html=1;outlineConnect=0;fillColor=#CCCCCC;strokeColor=#6881B3;gradientColor=none;gradientDirection=north;strokeWidth=2;shape=mxgraph.networks.pc;" vertex="1" parent="1">
          <mxGeometry x="1600" y="-1635" width="100" height="70" as="geometry" />
        </mxCell>
        <mxCell id="jmx8Vs3CeX0Q1d44jfAe-15" value="" style="edgeStyle=orthogonalEdgeStyle;rounded=0;orthogonalLoop=1;jettySize=auto;html=1;strokeWidth=2;" edge="1" parent="1" source="jmx8Vs3CeX0Q1d44jfAe-3" target="jmx8Vs3CeX0Q1d44jfAe-14">
          <mxGeometry relative="1" as="geometry" />
        </mxCell>
        <mxCell id="jmx8Vs3CeX0Q1d44jfAe-3" value="&lt;b&gt;&amp;nbsp; 互联网接入区&lt;/b&gt;" style="rounded=1;whiteSpace=wrap;html=1;horizontal=1;verticalAlign=top;align=left;fontSize=25;dashed=1;strokeWidth=2;arcSize=3;" vertex="1" parent="1">
          <mxGeometry x="2162" y="-1680" width="389" height="160" as="geometry" />
        </mxCell>
        <mxCell id="jmx8Vs3CeX0Q1d44jfAe-4" value="" style="fontColor=#0066CC;verticalAlign=top;verticalLabelPosition=bottom;labelPosition=center;align=center;html=1;outlineConnect=0;fillColor=#CCCCCC;strokeColor=#6881B3;gradientColor=none;gradientDirection=north;strokeWidth=2;shape=mxgraph.networks.pc;" vertex="1" parent="1">
          <mxGeometry x="2306.5" y="-1635" width="100" height="70" as="geometry" />
        </mxCell>
        <mxCell id="jmx8Vs3CeX0Q1d44jfAe-5" value="VPN" style="ellipse;shape=cloud;whiteSpace=wrap;html=1;fontSize=25;fontStyle=1" vertex="1" parent="1">
          <mxGeometry x="1535.5" y="-1403" width="240" height="120" as="geometry" />
        </mxCell>
        <mxCell id="jmx8Vs3CeX0Q1d44jfAe-8" style="edgeStyle=orthogonalEdgeStyle;rounded=0;orthogonalLoop=1;jettySize=auto;html=1;entryX=0.5;entryY=-0.023;entryDx=0;entryDy=0;entryPerimeter=0;strokeWidth=2;" edge="1" parent="1" source="jmx8Vs3CeX0Q1d44jfAe-5" target="jmx8Vs3CeX0Q1d44jfAe-6">
          <mxGeometry relative="1" as="geometry" />
        </mxCell>
        <mxCell id="jmx8Vs3CeX0Q1d44jfAe-9" value="" style="html=1;verticalLabelPosition=bottom;align=center;labelBackgroundColor=#ffffff;verticalAlign=top;strokeWidth=2;strokeColor=#000000;shadow=0;dashed=0;shape=mxgraph.ios7.icons.cloud;" vertex="1" parent="1">
          <mxGeometry x="1573" y="-920" width="165" height="110" as="geometry" />
        </mxCell>
        <mxCell id="jmx8Vs3CeX0Q1d44jfAe-12" value="堡垒机" style="text;html=1;align=center;verticalAlign=middle;whiteSpace=wrap;rounded=0;fontSize=25;fontStyle=1" vertex="1" parent="1">
          <mxGeometry x="1617.13" y="-865" width="76.75" height="30" as="geometry" />
        </mxCell>
        <mxCell id="jmx8Vs3CeX0Q1d44jfAe-13" style="edgeStyle=orthogonalEdgeStyle;rounded=0;orthogonalLoop=1;jettySize=auto;html=1;strokeWidth=2;" edge="1" parent="1" source="jmx8Vs3CeX0Q1d44jfAe-6">
          <mxGeometry relative="1" as="geometry">
            <mxPoint x="1656" y="-920" as="targetPoint" />
          </mxGeometry>
        </mxCell>
        <mxCell id="jmx8Vs3CeX0Q1d44jfAe-6" value="资源组" style="image;aspect=fixed;html=1;points=[];align=center;fontSize=22;image=img/lib/azure2/ai_machine_learning/Content_Safety.svg;shadow=0;fontStyle=1" vertex="1" parent="1">
          <mxGeometry x="1598" y="-1160" width="115" height="115" as="geometry" />
        </mxCell>
        <mxCell id="jmx8Vs3CeX0Q1d44jfAe-17" style="edgeStyle=orthogonalEdgeStyle;rounded=0;orthogonalLoop=1;jettySize=auto;html=1;entryX=0.5;entryY=0;entryDx=0;entryDy=0;strokeWidth=2;" edge="1" parent="1" source="jmx8Vs3CeX0Q1d44jfAe-14" target="jmx8Vs3CeX0Q1d44jfAe-16">
          <mxGeometry relative="1" as="geometry" />
        </mxCell>
        <mxCell id="jmx8Vs3CeX0Q1d44jfAe-14" value="HTTPS" style="ellipse;shape=cloud;whiteSpace=wrap;html=1;fontSize=25;fontStyle=1" vertex="1" parent="1">
          <mxGeometry x="2236.5" y="-1403" width="240" height="120" as="geometry" />
        </mxCell>
        <mxCell id="jmx8Vs3CeX0Q1d44jfAe-16" value="&lt;b&gt;&amp;nbsp; 集团云防&lt;/b&gt;" style="rounded=1;whiteSpace=wrap;html=1;horizontal=1;verticalAlign=top;align=left;fontSize=25;dashed=1;strokeWidth=2;arcSize=3;" vertex="1" parent="1">
          <mxGeometry x="2162" y="-1160" width="389" height="360" as="geometry" />
        </mxCell>
        <mxCell id="jmx8Vs3CeX0Q1d44jfAe-18" value="安全防护" style="image;aspect=fixed;html=1;points=[];align=center;fontSize=20;image=img/lib/azure2/networking/DDoS_Protection_Plans.svg;fontStyle=1" vertex="1" parent="1">
          <mxGeometry x="2318.21" y="-1113" width="76.59" height="93" as="geometry" />
        </mxCell>
        <mxCell id="jmx8Vs3CeX0Q1d44jfAe-19" value="&lt;b&gt;流量监控&lt;/b&gt;" style="image;aspect=fixed;html=1;points=[];align=center;fontSize=20;image=img/lib/azure2/monitor/SAP_Azure_Monitor.svg;" vertex="1" parent="1">
          <mxGeometry x="2315.88" y="-920" width="81.25" height="65" as="geometry" />
        </mxCell>
        <mxCell id="jmx8Vs3CeX0Q1d44jfAe-20" value="&lt;b&gt;&amp;nbsp; 天翼云防护&lt;/b&gt;" style="rounded=1;whiteSpace=wrap;html=1;horizontal=1;verticalAlign=top;align=left;fontSize=25;dashed=1;strokeWidth=2;arcSize=3;" vertex="1" parent="1">
          <mxGeometry x="1480" y="-680" width="1080" height="280" as="geometry" />
        </mxCell>
        <mxCell id="jmx8Vs3CeX0Q1d44jfAe-21" style="edgeStyle=orthogonalEdgeStyle;rounded=0;orthogonalLoop=1;jettySize=auto;html=1;entryX=0.162;entryY=0;entryDx=0;entryDy=0;entryPerimeter=0;strokeWidth=2;" edge="1" parent="1" source="jmx8Vs3CeX0Q1d44jfAe-9" target="jmx8Vs3CeX0Q1d44jfAe-20">
          <mxGeometry relative="1" as="geometry" />
        </mxCell>
        <mxCell id="jmx8Vs3CeX0Q1d44jfAe-22" style="edgeStyle=orthogonalEdgeStyle;rounded=0;orthogonalLoop=1;jettySize=auto;html=1;entryX=0.812;entryY=0.003;entryDx=0;entryDy=0;entryPerimeter=0;strokeWidth=2;" edge="1" parent="1" source="jmx8Vs3CeX0Q1d44jfAe-16" target="jmx8Vs3CeX0Q1d44jfAe-20">
          <mxGeometry relative="1" as="geometry" />
        </mxCell>
        <mxCell id="jmx8Vs3CeX0Q1d44jfAe-23" value="&lt;span style=&quot;font-size: 18px;&quot;&gt;&amp;nbsp; 服务器区&lt;/span&gt;" style="rounded=1;whiteSpace=wrap;html=1;horizontal=1;verticalAlign=top;align=left;fontSize=18;dashed=1;strokeWidth=2;arcSize=3;fontStyle=1" vertex="1" parent="1">
          <mxGeometry x="1560" y="-620" width="920" height="180" as="geometry" />
        </mxCell>
        <mxCell id="w4msts3daRkih6hlYQt3-72" value="数据库1" style="sketch=0;outlineConnect=0;fontColor=#232F3E;gradientColor=none;fillColor=#232F3D;strokeColor=none;dashed=0;verticalLabelPosition=bottom;verticalAlign=top;align=center;html=1;fontSize=14;fontStyle=0;aspect=fixed;pointerEvents=1;shape=mxgraph.aws4.servers;" parent="1" vertex="1">
          <mxGeometry x="2090.99" y="-570" width="78" height="78" as="geometry" />
        </mxCell>
        <mxCell id="w4msts3daRkih6hlYQt3-80" value="数据库2" style="sketch=0;outlineConnect=0;fontColor=#232F3E;gradientColor=none;fillColor=#232F3D;strokeColor=none;dashed=0;verticalLabelPosition=bottom;verticalAlign=top;align=center;html=1;fontSize=14;fontStyle=0;aspect=fixed;pointerEvents=1;shape=mxgraph.aws4.generic_database;" parent="1" vertex="1">
          <mxGeometry x="2314" y="-570" width="59" height="78" as="geometry" />
        </mxCell>
        <mxCell id="w4msts3daRkih6hlYQt3-64" value="服务2" style="sketch=0;outlineConnect=0;fontColor=#232F3E;gradientColor=none;fillColor=#232F3D;strokeColor=none;dashed=0;verticalLabelPosition=bottom;verticalAlign=top;align=center;html=1;fontSize=14;fontStyle=0;aspect=fixed;pointerEvents=1;shape=mxgraph.aws4.external_sdk;" parent="1" vertex="1">
          <mxGeometry x="1880.99" y="-570" width="69.74" height="80" as="geometry" />
        </mxCell>
        <mxCell id="jmx8Vs3CeX0Q1d44jfAe-24" value="服务1" style="sketch=0;outlineConnect=0;fontColor=#232F3E;gradientColor=none;fillColor=#232F3D;strokeColor=none;dashed=0;verticalLabelPosition=bottom;verticalAlign=top;align=center;html=1;fontSize=14;fontStyle=0;aspect=fixed;pointerEvents=1;shape=mxgraph.aws4.external_sdk;" vertex="1" parent="1">
          <mxGeometry x="1666.99" y="-570" width="69.74" height="80" as="geometry" />
        </mxCell>
      </root>
    </mxGraphModel>
  </diagram>
</mxfile>
